# xmcd
#
# Track frame offsets:
#	150
#	16075
#	28535
#	41593
#	53166
#	67542
#	84241
#	102697
#	113539
#	130169
#	139617
#
# Disc length: 1974 seconds
# Revision: 0
# Processed by: cddbd v1.5.2PL0 Copyright (c) Steve Scherf et al.
# Submitted via: dBpowerAMP V12.0
#
DISCID=7e07b40b
DTITLE=Blaine Gray - Blaine Gray
DYEAR=2010
DGENRE=Country
TTITLE0=I'm Not Sayin'
TTITLE1=The Corner of Love and Life
TTITLE2=No More Cryin'
TTITLE3=She Don't Fight Fair
TTITLE4=Seeing Is Believing
TTITLE5=If I Had You
TTITLE6=Love Song
TTITLE7=Why Baby Why
TTITLE8=Life Without You
TTITLE9=Urban Cowboy Man
TTITLE10=I'm Ragged But I'm Right
EXTD=
EXTT0=
EXTT1=
EXTT2=
EXTT3=
EXTT4=
EXTT5=
EXTT6=
EXTT7=
EXTT8=
EXTT9=
EXTT10=
PLAYORDER=
